/* XPM */
static char * close_active_xpm[] = {
"16 16 11 1",
" 	c None",
".	c #6980A7",
"+	c #6782AF",
"@	c #6781AD",
"#	c #6680AC",
"$	c #6982AB",
"%	c #6680AA",
"&	c #C6D0E0",
"*	c #6780A9",
"=	c #677FA7",
"-	c #687FA6",
"................",
"++++++++++++++++",
"++++++++++++++++",
"@@@@@@@@@@@@@@@@",
"################",
"###$$$$$$$$$####",
"%%%$&&$$$&&$%%%%",
"***$&&&$&&&$****",
"===$$&&&&&$$====",
"---$$$&&&$$$----",
"===$$&&&&&$$====",
"***$&&&$&&&$****",
"%%%$&&$$$&&$%%%%",
"###$$$$$$$$$####",
"################",
"@@@@@@@@@@@@@@@@"};
