/* XPM */
static char * hide_inactive_xpm[] = {
"16 16 6 1",
" 	c None",
".	c #CED3DC",
"+	c #CDD3DF",
"@	c #CED4DE",
"#	c #CDD3DD",
"$	c #E9ECF0",
"................",
"++++++++++++++++",
"@@@@@@@@@@@@@@@@",
"@@@@@@@@@@@@@@@@",
"################",
"....#########...",
"....#########...",
"....#########...",
"....#########...",
"....#$$$$$$$#...",
"....#$$$$$$$#...",
"....#########...",
"....#########...",
"....#########...",
"################",
"@@@@@@@@@@@@@@@@"};
