/* XPM */
static char * left_active_xpm[] = {
"3 4 2 1",
".	c #6F88B1",
"+	c #EEEEEE",
".++",
".++",
".++",
".++"};
