/* XPM */
static char * maximize_pressed_xpm[] = {
"16 16 12 1",
" 	c None",
".	c #6980A7",
"+	c #6783B1",
"@	c #6883B0",
"#	c #6882AE",
"$	c #6881AC",
"%	c #6982AB",
"&	c #6888BE",
"*	c #6781AB",
"=	c #6981A9",
"-	c #C2DCFC",
";	c #6880A8",
"................",
"++++++++++++++++",
"@@@@@@@@@@@@@@@@",
"################",
"$$$$$$$$$$$$$$$$",
"%%%%&&&&&&&&&%%%",
"****&&&&&&&&&***",
"====&&&&-&&&&===",
";;;;&&&---&&&;;;",
"....&&-----&&...",
";;;;&---&---&;;;",
"====&--&&&--&===",
"****&&&&&&&&&***",
"%%%%&&&&&&&&&%%%",
"$$$$$$$$$$$$$$$$",
"################"};
