/* XPM */
static char * menu_pressed_xpm[] = {
"16 16 11 1",
" 	c None",
".	c #677FA7",
"+	c #6A84B0",
"@	c #6B84AF",
"#	c #6983AF",
"$	c #6983AD",
"%	c #6982AB",
"&	c #6888BE",
"*	c #6781AB",
"=	c #6981A9",
"-	c #C2DCFC",
"................",
"++++++++++++++++",
"@@@@@@@@@@@@@@@@",
"################",
"$$$$$$$$$$$$$$$$",
"%%%%&&&&&&&&&%%%",
"****&&&&&&&&&***",
"====&&&---&&&===",
"....&&-----&&...",
"....&&-----&&...",
"....&&-----&&...",
"====&&&---&&&===",
"****&&&&&&&&&***",
"%%%%&&&&&&&&&%%%",
"$$$$$$$$$$$$$$$$",
"################"};
