/* XPM */
static char * title_active_xpm[] = {
"4 22 10 1",
" 	c None",
".	c #6F88B1",
"+	c #EEEEEE",
"@	c #687FA6",
"#	c #6782AF",
"$	c #6781AD",
"%	c #6680AC",
"&	c #6680AA",
"*	c #6780A9",
"=	c #677FA7",
"....",
"++++",
"++++",
"@@@@",
"####",
"####",
"$$$$",
"%%%%",
"%%%%",
"&&&&",
"****",
"====",
"@@@@",
"====",
"****",
"&&&&",
"%%%%",
"%%%%",
"$$$$",
"####",
"####",
"@@@@"};
