/* XPM */
static char * title_inactive_xpm[] = {
"3 22 6 1",
".	c #A0B2CA",
"+	c #F0F0F0",
"@	c #CED3DC",
"#	c #CDD3DF",
"$	c #CED4DE",
"%	c #CDD3DD",
"...",
"+++",
"+++",
"@@@",
"###",
"$$$",
"$$$",
"%%%",
"@@@",
"@@@",
"@@@",
"@@@",
"@@@",
"@@@",
"@@@",
"@@@",
"@@@",
"%%%",
"$$$",
"$$$",
"###",
"@@@"};
