/* XPM */
static char * top_right_inactive_xpm[] = {
"4 22 5 1",
" 	c None",
".	c #A0B2CA",
"+	c #F0F0F0",
"@	c #CDD3DF",
"#	c #CED3DC",
"..  ",
"++. ",
"+++.",
"@++.",
"#++.",
"#++.",
"#++.",
"#++.",
"#++.",
"#++.",
"#++.",
"#++.",
"#++.",
"#++.",
"#++.",
"#++.",
"#++.",
"#++.",
"#++.",
"#++.",
"#++.",
"@++."};
